<svg xmlns="http://www.w3.org/2000/svg" viewBox="0 0 110 110">
  <rect width="110" height="110" rx="24" fill="#E0DFD5" />
  <path d="m60.1 16.8h-23.3c-5.9 0-10.9 4.7-10.9 11.1v36.2c1.3-1.7 3.2-3.4 5-4.6v-31.6c0-3 2.3-6 5.8-6h23.1c12.2 0 23.6 9.5 23.6 24.3 0 12.7-9.6 26-24 26h-19c-1.7 0-2.7 1.3-2.7 3v14.5c0 1.9-1.4 3.1-3.3 3.1s-3.5-1.3-3.5-3.3v-13.6c0-5.3 3.8-10.4 9.7-10.4h19.4c7.9 0 16.9-6.1 16.9-19.2-0.3-9.1-7.4-17.5-16.9-17.5h-19.7c-1.3 0-2.6 1.2-2.6 2.6v25.5l2.6-0.2h2.7l8.6-10.7c0.2-0.3 0.6-0.3 0.7 0l5.5 6.4c0.9 1.1 2.2 1.1 3.1 0.3l2.9-3.1c0.3-0.6 0.9-0.6 1.2-0.2l4.5 5.1c-2.1 3.1-5.9 5.4-10 5.4h-18.9c-8.2 0.2-14.8 6.5-14.7 15.3v14.3c0 3.9 2.8 8 8.4 8 4.9 0 8.3-3.6 8.3-7.9v-12.4h16.9c16.3 0 29.1-12.4 29.1-30.9-0.2-15.1-12.6-29.5-28.5-29.5zm3.5 25.6c-1.9 0-3.6-1.4-3.6-3.2 0-0.6 0.3-1.4 0.5-1.8-1.5 0.1-2.8 1.6-2.8 3.2 0 2 1.5 3.3 3.5 3.3 1.4 0 2.7-0.8 3.3-1.7-0.1 0.2-0.5 0.2-0.9 0.2zm2.5 5.7c-1.1-0.7-2.1-1.1-3.4 0l-3.1 3.3-0.4 0.1-5.1-6.4c-1-1.1-2.4-1.4-3.6-0.1l-7.9 9.4v-20.6h16.9c6.3 0 12.5 5 12.5 12.3 0 2.3-0.4 4.6-1.6 7l-4.3-5z" fill="#E4B363"/>
</svg>